<?xml version="1.0" encoding="UTF-8"?>
<svg xmlns="http://www.w3.org/2000/svg" width="668" height="304" viewBox="0 0 668 304"><rect width="668" height="304" fill="#F7F9FC"></rect><text x="40" y="32" fill="#1F2937" font-family="Arial, Helvetica, sans-serif" font-size="16" font-weight="600">AI adoption readiness</text><g><path d="M 220 72 L 232 72 L 232 112 L 244 112" fill="none" stroke="#7B8AB8" stroke-width="2" stroke-linecap="round" stroke-linejoin="round"></path><polygon points="236,108 236,116 244,112" fill="#7B8AB8"></polygon></g><g><path d="M 424 112 L 436 112 L 436 152 L 448 152" fill="none" stroke="#7B8AB8" stroke-width="2" stroke-linecap="round" stroke-linejoin="round"></path><polygon points="440,148 440,156 448,152" fill="#7B8AB8"></polygon></g><g transform="translate(40, 50)"><rect x="0" y="0" width="180" height="44" rx="6" ry="6" fill="#3F51B5"></rect><text x="90" y="27" text-anchor="middle" fill="#FFFFFF" font-family="Arial, Helvetica, sans-serif" font-size="13" font-weight="bold">Assessment</text><rect x="0" y="48" width="180" height="60" rx="6" ry="6" fill="#FFFFFF" stroke="#E5E7EB" stroke-width="0.5"></rect><text x="12" y="72" fill="#1F2937" font-family="Arial, Helvetica, sans-serif" font-size="11"><tspan x="12" dy="0">Evaluate current capabilities and gaps.</tspan></text><text x="12" y="88" fill="#6B7280" font-family="Arial, Helvetica, sans-serif" font-size="10" font-style="italic">(Baseline metrics, stakeholder mapping)</text></g><g transform="translate(244, 90)"><rect x="0" y="0" width="180" height="44" rx="6" ry="6" fill="#3F51B5"></rect><text x="90" y="27" text-anchor="middle" fill="#FFFFFF" font-family="Arial, Helvetica, sans-serif" font-size="13" font-weight="bold">Pilot</text><rect x="0" y="48" width="180" height="60" rx="6" ry="6" fill="#FFFFFF" stroke="#E5E7EB" stroke-width="0.5"></rect><text x="12" y="72" fill="#1F2937" font-family="Arial, Helvetica, sans-serif" font-size="11"><tspan x="12" dy="0">Run controlled experiments with agentic tools.</tspan></text><text x="12" y="88" fill="#6B7280" font-family="Arial, Helvetica, sans-serif" font-size="10" font-style="italic">(Proof of value, learning cycles)</text></g><g transform="translate(448, 130)"><rect x="0" y="0" width="180" height="44" rx="6" ry="6" fill="#3F51B5"></rect><text x="90" y="27" text-anchor="middle" fill="#FFFFFF" font-family="Arial, Helvetica, sans-serif" font-size="13" font-weight="bold">Scale</text><rect x="0" y="48" width="180" height="60" rx="6" ry="6" fill="#FFFFFF" stroke="#E5E7EB" stroke-width="0.5"></rect><text x="12" y="72" fill="#1F2937" font-family="Arial, Helvetica, sans-serif" font-size="11"><tspan x="12" dy="0">Expand across functions with governance.</tspan></text><text x="12" y="88" fill="#6B7280" font-family="Arial, Helvetica, sans-serif" font-size="10" font-style="italic">(Operating model redesign)</text></g></svg>